<svg width="843" height="844" viewBox="0 0 843 844" fill="none" xmlns="http://www.w3.org/2000/svg">
<rect x="2.12132" y="266.349" width="315.691" height="315.691" transform="rotate(-45 2.12132 266.349)" stroke="#0027FF" stroke-width="3"/>
<rect x="394.121" y="540.349" width="315.691" height="315.691" transform="rotate(-45 394.121 540.349)" stroke="#0027FF" stroke-width="3"/>
<rect x="112.121" y="658.174" width="135.839" height="135.839" transform="rotate(-45 112.121 658.174)" stroke="#0027FF" stroke-width="3"/>
<rect x="354.887" width="367" height="367" transform="rotate(45.9502 354.887 0)" fill="url(#paint0_linear_355_52)"/>
<rect x="692.516" y="429" width="153.763" height="153.763" transform="rotate(45.9502 692.516 429)" fill="url(#paint1_linear_355_52)"/>
<rect x="185.516" y="626" width="153.763" height="153.763" transform="rotate(45.9502 185.516 626)" fill="url(#paint2_linear_355_52)"/>
<rect x="181" y="743" width="535" height="535" transform="rotate(-90 181 743)" fill="url(#paint3_linear_355_52)"/>
<rect x="187.744" y="213.918" width="523.164" height="523.164" fill="black"/>
<defs>
<linearGradient id="paint0_linear_355_52" x1="538.387" y1="0" x2="538.387" y2="367" gradientUnits="userSpaceOnUse">
<stop/>
<stop offset="1" stop-color="#0027FF"/>
</linearGradient>
<linearGradient id="paint1_linear_355_52" x1="769.397" y1="429" x2="769.397" y2="582.763" gradientUnits="userSpaceOnUse">
<stop/>
<stop offset="1" stop-color="#0027FF"/>
</linearGradient>
<linearGradient id="paint2_linear_355_52" x1="262.397" y1="626" x2="262.397" y2="779.763" gradientUnits="userSpaceOnUse">
<stop/>
<stop offset="1" stop-color="#0027FF"/>
</linearGradient>
<linearGradient id="paint3_linear_355_52" x1="181" y1="743" x2="716" y2="1278" gradientUnits="userSpaceOnUse">
<stop stop-color="#0027FF"/>
<stop offset="0.378125" stop-color="#0027FF" stop-opacity="0"/>
<stop offset="0.675" stop-color="#0027FF" stop-opacity="0"/>
<stop offset="1" stop-color="#0027FF"/>
</linearGradient>
</defs>
</svg>
