<svg width="63" height="63" viewBox="0 0 63 63" fill="none" xmlns="http://www.w3.org/2000/svg">
<path fill-rule="evenodd" clip-rule="evenodd" d="M31.896 0.63916C14.8268 0.63916 0.989502 14.4765 0.989502 31.5456C0.989502 48.6148 14.8268 62.4521 31.896 62.4521C48.9652 62.4521 62.8025 48.6148 62.8025 31.5456C62.8025 14.4765 48.9652 0.63916 31.896 0.63916ZM25.0999 15.1616C26.8582 15.0815 27.42 15.062 31.8967 15.062H31.8915C36.3696 15.062 36.9293 15.0815 38.6876 15.1616C40.4424 15.2419 41.6409 15.5197 42.6917 15.9274C43.7769 16.348 44.6938 16.9112 45.6107 17.8281C46.5276 18.7443 47.0908 19.664 47.5132 20.7481C47.9184 21.7962 48.1966 22.994 48.279 24.7489C48.358 26.5071 48.3786 27.0689 48.3786 31.5456C48.3786 36.0223 48.358 36.5827 48.279 38.341C48.1966 40.0951 47.9184 41.2933 47.5132 42.3417C47.0908 43.4255 46.5276 44.3451 45.6107 45.2614C44.6948 46.1783 43.7766 46.7428 42.6928 47.1638C41.644 47.5715 40.4448 47.8493 38.69 47.9296C36.9317 48.0097 36.3716 48.0292 31.8946 48.0292C27.4183 48.0292 26.8568 48.0097 25.0985 47.9296C23.3441 47.8493 22.1459 47.5715 21.0971 47.1638C20.0137 46.7428 19.094 46.1783 18.1782 45.2614C17.2616 44.3451 16.6984 43.4255 16.277 42.3414C15.8698 41.2933 15.5919 40.0955 15.5112 38.3406C15.4316 36.5824 15.4117 36.0223 15.4117 31.5456C15.4117 27.0689 15.4323 26.5068 15.5109 24.7485C15.5899 22.9944 15.868 21.7962 16.2767 20.7478C16.6991 19.664 17.2623 18.7443 18.1792 17.8281C19.0954 16.9116 20.0151 16.3484 21.0992 15.9274C22.1473 15.5197 23.3451 15.2419 25.0999 15.1616Z" fill="white"/>
<path fill-rule="evenodd" clip-rule="evenodd" d="M30.4185 18.032C30.7056 18.0315 31.0145 18.0316 31.3478 18.0318L31.8972 18.032C36.2983 18.032 36.8199 18.0477 38.5579 18.1267C40.1651 18.2002 41.0374 18.4688 41.6184 18.6944C42.3876 18.9932 42.9361 19.3503 43.5126 19.9272C44.0896 20.5042 44.4467 21.0536 44.7462 21.8228C44.9718 22.4032 45.2407 23.2755 45.3138 24.8826C45.3928 26.6203 45.41 27.1423 45.41 31.5413C45.41 35.9404 45.3928 36.4624 45.3138 38.2C45.2403 39.8072 44.9718 40.6794 44.7462 41.2598C44.4474 42.029 44.0896 42.5768 43.5126 43.1534C42.9357 43.7303 42.388 44.0874 41.6184 44.3862C41.038 44.6128 40.1651 44.8807 38.5579 44.9542C36.8203 45.0332 36.2983 45.0503 31.8972 45.0503C27.4957 45.0503 26.9741 45.0332 25.2364 44.9542C23.6293 44.88 22.757 44.6115 22.1756 44.3858C21.4064 44.0871 20.8569 43.7299 20.28 43.153C19.7031 42.5761 19.3459 42.028 19.0465 41.2584C18.8208 40.6781 18.552 39.8058 18.4788 38.1986C18.3998 36.461 18.384 35.939 18.384 31.5372C18.384 27.1354 18.3998 26.6161 18.4788 24.8785C18.5523 23.2713 18.8208 22.3991 19.0465 21.818C19.3452 21.0488 19.7031 20.4993 20.28 19.9224C20.8569 19.3455 21.4064 18.9883 22.1756 18.6889C22.7567 18.4622 23.6293 18.1944 25.2364 18.1206C26.757 18.0519 27.3463 18.0313 30.4185 18.0278V18.032ZM40.6953 20.7699C39.6032 20.7699 38.7172 21.6549 38.7172 22.7472C38.7172 23.8393 39.6032 24.7253 40.6953 24.7253C41.7873 24.7253 42.6733 23.8393 42.6733 22.7472C42.6733 21.6552 41.7873 20.7692 40.6953 20.7692V20.7699ZM23.4326 31.5457C23.4326 26.8709 27.2228 23.0807 31.8976 23.0807H31.8973C36.5721 23.0807 40.3613 26.8709 40.3613 31.5457C40.3613 36.2205 36.5725 40.009 31.8976 40.009C27.2228 40.009 23.4326 36.2205 23.4326 31.5457Z" fill="white"/>
<path fill-rule="evenodd" clip-rule="evenodd" d="M31.8979 26.0518C34.9322 26.0518 37.3924 28.5116 37.3924 31.5463C37.3924 34.5807 34.9322 37.0408 31.8979 37.0408C28.8632 37.0408 26.4033 34.5807 26.4033 31.5463C26.4033 28.5116 28.8632 26.0518 31.8979 26.0518V26.0518Z" fill="white"/>
</svg>
