<svg width="62" height="63" viewBox="0 0 62 63" fill="none" xmlns="http://www.w3.org/2000/svg">
<path fill-rule="evenodd" clip-rule="evenodd" d="M31.0933 0.63916C14.0241 0.63916 0.186768 14.4765 0.186768 31.5456C0.186768 48.6148 14.0241 62.4521 31.0933 62.4521C48.1624 62.4521 61.9997 48.6148 61.9997 31.5456C61.9997 14.4765 48.1624 0.63916 31.0933 0.63916ZM15.0229 26.2366H22.027V47.281H15.0229V26.2366ZM22.4892 19.7268C22.4437 17.6634 20.9682 16.0918 18.5721 16.0918C16.1761 16.0918 14.6096 17.6634 14.6096 19.7268C14.6096 21.7474 16.1298 23.3643 18.4812 23.3643H18.526C20.9682 23.3643 22.4892 21.7474 22.4892 19.7268ZM39.2237 25.7434C43.8327 25.7434 47.2881 28.7518 47.2881 35.2157L47.2878 47.2819H40.284V36.0232C40.284 33.1952 39.2704 31.2655 36.7349 31.2655C34.7999 31.2655 33.6473 32.5664 33.1411 33.8229C32.9559 34.2732 32.9105 34.9006 32.9105 35.5296V47.2825H25.9056C25.9056 47.2825 25.9979 28.2128 25.9056 26.2381H32.9105V29.2189C33.8401 27.786 35.505 25.7434 39.2237 25.7434Z" fill="white"/>
</svg>
