<svg width="932" height="795" viewBox="0 0 932 795" fill="none" xmlns="http://www.w3.org/2000/svg">
<rect x="2.12132" y="439.349" width="315.691" height="315.691" transform="rotate(-45 2.12132 439.349)" stroke="#0027FF" stroke-width="3"/>
<rect x="483.121" y="569.349" width="315.691" height="315.691" transform="rotate(-45 483.121 569.349)" stroke="#0027FF" stroke-width="3"/>
<rect x="487.121" y="209.174" width="292.817" height="291.896" transform="rotate(-45 487.121 209.174)" stroke="#0027FF" stroke-width="3"/>
<rect x="354.887" y="173" width="367" height="367" transform="rotate(45.9502 354.887 173)" fill="url(#paint0_linear_360_34)"/>
<rect x="695.516" y="39" width="239.473" height="261.594" transform="rotate(45.9502 695.516 39)" fill="url(#paint1_linear_360_34)"/>
<rect x="862" y="110" width="643" height="643" transform="rotate(90 862 110)" fill="url(#paint2_linear_360_34)"/>
<rect x="225" y="115" width="633" height="633" fill="black"/>
<defs>
<linearGradient id="paint0_linear_360_34" x1="281.276" y1="420.247" x2="538.387" y2="540" gradientUnits="userSpaceOnUse">
<stop/>
<stop offset="1" stop-color="#0027FF"/>
</linearGradient>
<linearGradient id="paint1_linear_360_34" x1="815.252" y1="39" x2="651.891" y2="147.426" gradientUnits="userSpaceOnUse">
<stop/>
<stop offset="1" stop-color="#0027FF"/>
</linearGradient>
<linearGradient id="paint2_linear_360_34" x1="862" y1="110" x2="1505" y2="753" gradientUnits="userSpaceOnUse">
<stop stop-color="#0027FF"/>
<stop offset="0.201042"/>
<stop offset="0.784375"/>
<stop offset="1" stop-color="#0027FF"/>
</linearGradient>
</defs>
</svg>
