<svg width="63" height="63" viewBox="0 0 63 63" fill="none" xmlns="http://www.w3.org/2000/svg">
<path fill-rule="evenodd" clip-rule="evenodd" d="M31.4941 0.63916C14.425 0.63916 0.587646 14.4765 0.587646 31.5456C0.587646 48.6148 14.425 62.4521 31.4941 62.4521C48.5633 62.4521 62.4006 48.6148 62.4006 31.5456C62.4006 14.4765 48.5633 0.63916 31.4941 0.63916ZM30.6331 26.8288L30.5683 25.7594C30.3737 22.9876 32.0816 20.4559 34.7839 19.4737C35.7783 19.1245 37.4646 19.0809 38.5671 19.3864C38.9995 19.5174 39.821 19.9539 40.4047 20.3467L41.464 21.067L42.6314 20.6959C43.2799 20.4995 44.1447 20.1721 44.5338 19.9539C44.9013 19.7574 45.2256 19.6483 45.2256 19.7138C45.2256 20.0848 44.4257 21.3507 43.7555 22.0491C42.8475 23.0312 43.107 23.1185 44.9445 22.4638C46.0471 22.0927 46.0687 22.0927 45.8525 22.5074C45.7228 22.7257 45.0526 23.4895 44.3392 24.188C43.1286 25.3883 43.0637 25.5193 43.0637 26.5233C43.0637 28.0728 42.3287 31.303 41.5937 33.0708C40.2317 36.3882 37.3132 39.8148 34.3947 41.539C30.2872 43.9616 24.8178 44.5727 20.213 43.154C18.6781 42.6739 16.0407 41.4517 16.0407 41.2334C16.0407 41.1679 16.8406 41.0807 17.8134 41.0588C19.8455 41.0152 21.8777 40.4477 23.6071 39.4438L24.7745 38.7454L23.4342 38.287C21.5318 37.6323 19.8239 36.1263 19.3915 34.7077C19.2618 34.2494 19.3051 34.2275 20.5157 34.2275L21.7696 34.2057L20.7103 33.7037C19.4564 33.0708 18.3106 32.0014 17.7485 30.9101C17.3378 30.1244 16.8189 28.1383 16.9703 27.9855C17.0135 27.9201 17.4675 28.051 17.9863 28.2256C19.478 28.7712 19.6726 28.6403 18.8078 27.7236C17.1864 26.0649 16.6892 23.5987 17.4675 21.2634L17.835 20.2158L19.2618 21.6344C22.1803 24.4935 25.6176 26.1959 29.5522 26.6979L30.6331 26.8288Z" fill="white"/>
</svg>
